<svg width="240" height="240" viewBox="0 0 240 240" fill="none" xmlns="http://www.w3.org/2000/svg">
  <defs>
    <!-- Primary Gradient - Modern AI Blue to Purple -->
    <linearGradient id="primaryGradient" x1="0%" y1="0%" x2="100%" y2="100%">
      <stop offset="0%" stop-color="#4f46e5" stop-opacity="1" />
      <stop offset="50%" stop-color="#7c3aed" stop-opacity="1" />
      <stop offset="100%" stop-color="#2563eb" stop-opacity="1" />
    </linearGradient>

    <!-- Secondary Gradient - Accent -->
    <linearGradient id="accentGradient" x1="0%" y1="0%" x2="100%" y2="100%">
      <stop offset="0%" stop-color="#06b6d4" stop-opacity="1" />
      <stop offset="100%" stop-color="#0891b2" stop-opacity="1" />
    </linearGradient>

    <!-- Success Gradient -->
    <linearGradient id="successGradient" x1="0%" y1="0%" x2="100%" y2="100%">
      <stop offset="0%" stop-color="#10b981" stop-opacity="1" />
      <stop offset="100%" stop-color="#059669" stop-opacity="1" />
    </linearGradient>

    <!-- Glow Effect -->
    <filter id="glow" x="-50%" y="-50%" width="200%" height="200%">
      <feGaussianBlur stdDeviation="4" result="coloredBlur"/>
      <feMerge> 
        <feMergeNode in="coloredBlur"/>
        <feMergeNode in="SourceGraphic"/>
      </feMerge>
    </filter>

    <!-- Neural Network Pattern -->
    <pattern id="neuralPattern" x="0" y="0" width="30" height="30" patternUnits="userSpaceOnUse">
      <circle cx="15" cy="15" r="1.5" fill="url(#primaryGradient)" opacity="0.2"/>
      <circle cx="5" cy="5" r="1" fill="url(#accentGradient)" opacity="0.15"/>
      <circle cx="25" cy="10" r="0.8" fill="url(#successGradient)" opacity="0.1"/>
    </pattern>
  </defs>

  <!-- Background Neural Network -->
  <circle cx="120" cy="120" r="115" fill="url(#neuralPattern)" opacity="0.3"/>

  <!-- Central Brain/Core -->
  <circle cx="120" cy="120" r="32" fill="url(#primaryGradient)" opacity="0.15"/>

  <!-- Inner AI Core -->
  <circle cx="120" cy="120" r="18" fill="url(#primaryGradient)" opacity="0.8" filter="url(#glow)"/>

  <!-- AI Symbol - Modern Hexagonal Pattern -->
  <polygon points="120,102 132,108 132,132 120,138 108,132 108,108" fill="none" stroke="white" stroke-width="2" opacity="0.9"/>
  <polygon points="120,108 126,111 126,129 120,132 114,129 114,111" fill="white" opacity="0.7"/>

  <!-- Data Flow Particles - Static positions -->
  <circle cx="60" cy="120" r="3" fill="url(#accentGradient)" opacity="0.8"/>
  <circle cx="60" cy="110" r="2.5" fill="url(#successGradient)" opacity="0.8"/>
  <circle cx="60" cy="130" r="2" fill="url(#primaryGradient)" opacity="0.8"/>

  <circle cx="180" cy="120" r="3" fill="url(#accentGradient)" opacity="0.6"/>
  <circle cx="180" cy="110" r="2.5" fill="url(#successGradient)" opacity="0.6"/>
  <circle cx="180" cy="130" r="2" fill="url(#primaryGradient)" opacity="0.6"/>

  <!-- Document Transformation Metaphor -->
  <!-- Input Document Icon -->
  <rect x="65" y="70" width="20" height="24" rx="3" fill="#64748b" opacity="0.4"/>
  
  <!-- Rough content lines -->
  <line x1="68" y1="76" x2="78" y2="76" stroke="#64748b" stroke-width="1" opacity="0.6"/>
  <line x1="68" y1="80" x2="75" y2="80" stroke="#64748b" stroke-width="1" opacity="0.6"/>

  <!-- Output Document Icon -->
  <rect x="175" y="70" width="20" height="24" rx="3" fill="url(#primaryGradient)" opacity="0.9"/>

  <!-- Polished content lines -->
  <rect x="178" y="75" width="14" height="1" rx="0.5" fill="white" opacity="0.9"/>
  <rect x="178" y="78" width="14" height="1" rx="0.5" fill="white" opacity="0.9"/>
  <rect x="178" y="81" width="10" height="1" rx="0.5" fill="white" opacity="0.9"/>

  <!-- Floating Enhancement Indicators -->
  <circle cx="90" cy="90" r="2" fill="url(#accentGradient)" opacity="0.7"/>
  <circle cx="150" cy="95" r="1.5" fill="url(#successGradient)" opacity="0.7"/>
  <circle cx="85" cy="155" r="1.8" fill="#fbbf24" opacity="0.7"/>
  <circle cx="155" cy="150" r="2.2" fill="url(#primaryGradient)" opacity="0.7"/>

  <!-- Pulse Ring Effect - Static -->
  <circle cx="120" cy="120" r="18" fill="none" stroke="url(#primaryGradient)" stroke-width="1.5" opacity="0.4"/>
  <circle cx="120" cy="120" r="25" fill="none" stroke="url(#accentGradient)" stroke-width="1" opacity="0.3"/>
</svg>