<svg width="200" height="200" viewBox="0 0 200 200" fill="none" xmlns="http://www.w3.org/2000/svg"><defs><linearGradient id="a" x1="0%" y1="0%" x2="100%" y2="100%"><stop offset="0%" style="stop-color:#6366f1;stop-opacity:1"/><stop offset="100%" style="stop-color:#8b5cf6;stop-opacity:1"/></linearGradient><linearGradient id="b" x1="0%" y1="0%" x2="100%" y2="100%"><stop offset="0%" style="stop-color:#06b6d4;stop-opacity:1"/><stop offset="100%" style="stop-color:#3b82f6;stop-opacity:1"/></linearGradient></defs><circle cx="100" cy="100" r="90" fill="url(#a)" opacity=".1"/><rect x="60" y="40" width="80" height="100" rx="8" fill="url(#a)" opacity=".8"/><rect x="70" y="50" width="60" height="80" rx="4" fill="#fff"/><path stroke="#6366f1" stroke-width="2" stroke-linecap="round" d="M80 65h40M80 75h35M80 85h30"/><path d="M35 100q15-20 30 0t30 0" stroke="url(#b)" stroke-width="3" stroke-linecap="round"/><path fill="url(#b)" d="m90 95 10 5-10 5z"/><g opacity=".7" fill="#fbbf24"><circle cx="45" cy="70" r="2"/><circle cx="155" cy="60" r="2"/><circle cx="165" cy="140" r="2"/><circle cx="35" cy="130" r="2"/></g><rect x="105" y="60" width="80" height="100" rx="8" fill="url(#b)" opacity=".9"/><rect x="115" y="70" width="60" height="80" rx="4" fill="#fff"/><rect x="125" y="85" width="30" height="4" rx="2" fill="#06b6d4"/><rect x="125" y="95" width="35" height="4" rx="2" fill="#06b6d4"/><rect x="125" y="105" width="25" height="4" rx="2" fill="#06b6d4"/><rect x="125" y="115" width="30" height="4" rx="2" fill="#06b6d4"/><rect x="125" y="125" width="35" height="4" rx="2" fill="#06b6d4"/></svg>
