<svg width="1280" height="640" viewBox="0 0 1280 640" fill="none" xmlns="http://www.w3.org/2000/svg"><defs><linearGradient id="a" x1="0%" y1="0%" x2="100%" y2="100%"><stop offset="0%" style="stop-color:#0f172a;stop-opacity:1"/><stop offset="50%" style="stop-color:#1e293b;stop-opacity:1"/><stop offset="100%" style="stop-color:#334155;stop-opacity:1"/></linearGradient><linearGradient id="c" x1="0%" y1="0%" x2="100%" y2="100%"><stop offset="0%" style="stop-color:#6366f1;stop-opacity:1"/><stop offset="50%" style="stop-color:#8b5cf6;stop-opacity:1"/><stop offset="100%" style="stop-color:#06b6d4;stop-opacity:1"/></linearGradient><linearGradient id="d" x1="0%" y1="0%" x2="100%" y2="100%"><stop offset="0%" style="stop-color:#fff;stop-opacity:.9"/><stop offset="100%" style="stop-color:#f8fafc;stop-opacity:.9"/></linearGradient><filter id="e"><feGaussianBlur stdDeviation="3" result="coloredBlur"/><feMerge><feMergeNode in="coloredBlur"/><feMergeNode in="SourceGraphic"/></feMerge></filter></defs><path fill="url(#a)" d="M0 0h1280v640H0z"/><pattern id="b" width="40" height="40" patternUnits="userSpaceOnUse"><path d="M40 0H0v40" stroke="#475569" stroke-width=".5" opacity=".3"/></pattern><path fill="url(#b)" d="M0 0h1280v640H0z"/><circle cx="100" cy="100" r="60" fill="#6366f1" opacity=".05"/><circle cx="1180" cy="540" r="80" fill="#8b5cf6" opacity=".05"/><circle cx="1100" cy="150" r="50" fill="#06b6d4" opacity=".05"/><g transform="translate(140 160)"><circle cx="50" cy="50" r="45" fill="url(#c)" opacity=".2"/><rect x="20" y="25" width="30" height="40" rx="3" fill="url(#c)" opacity=".6"/><rect x="25" y="30" width="20" height="30" rx="2" fill="url(#d)"/><path stroke="#6366f1" stroke-linecap="round" d="M28 38h14m-14 4h12m-12 4h10"/><path d="M55 50q10-10 20 0" stroke="url(#c)" stroke-width="2" stroke-linecap="round" filter="url(#e)"/><path fill="url(#c)" d="m72 47 8 3-8 3z"/><rect x="85" y="25" width="30" height="40" rx="3" fill="url(#c)" opacity=".8"/><rect x="90" y="30" width="20" height="30" rx="2" fill="url(#d)"/><rect x="93" y="38" width="8" height="2" rx="1" fill="#06b6d4"/><rect x="93" y="42" width="10" height="2" rx="1" fill="#06b6d4"/><rect x="93" y="46" width="6" height="2" rx="1" fill="#06b6d4"/><rect x="93" y="50" width="8" height="2" rx="1" fill="#06b6d4"/><rect x="93" y="54" width="10" height="2" rx="1" fill="#06b6d4"/></g><text x="320" y="200" font-family="system-ui, -apple-system, sans-serif" font-size="64" font-weight="800" fill="#fff">
    Note Transformer
</text><text x="320" y="250" font-family="system-ui, -apple-system, sans-serif" font-size="32" font-weight="400" fill="#94a3b8">
    AI-Powered Note Enhancement
</text><text x="320" y="300" font-family="system-ui, -apple-system, sans-serif" font-size="24" font-weight="300" fill="#64748b">
    Transform raw notes into polished, professional formats
</text><g transform="translate(320 360)"><circle cx="8" cy="8" r="4" fill="#10b981"/><text x="25" y="13" font-family="system-ui, -apple-system, sans-serif" font-size="20" fill="#e2e8f0">Interview Notes</text></g><g transform="translate(320 400)"><circle cx="8" cy="8" r="4" fill="#3b82f6"/><text x="25" y="13" font-family="system-ui, -apple-system, sans-serif" font-size="20" fill="#e2e8f0">Meeting Summaries</text></g><g transform="translate(320 440)"><circle cx="8" cy="8" r="4" fill="#8b5cf6"/><text x="25" y="13" font-family="system-ui, -apple-system, sans-serif" font-size="20" fill="#e2e8f0">Custom Formats</text></g></svg>
